<?xml version="1.0" encoding="utf-8"?>
<!-- Generator: Adobe Illustrator 21.0.2, SVG Export Plug-In . SVG Version: 6.00 Build 0)  -->
<svg version="1.1" id="Capa_1" xmlns="http://www.w3.org/2000/svg" xmlns:xlink="http://www.w3.org/1999/xlink" x="0px" y="0px"
	 viewBox="0 0 199.8 52.6" style="enable-background:new 0 0 199.8 52.6;" xml:space="preserve">
<style type="text/css">
	.st0{fill:#017CC0;fill-opacity:0;stroke:#FFFFFF;stroke-width:2;stroke-linejoin:round;}
	.st1{fill:#FFFFFF;}
	.st2{fill:none;enable-background:new    ;}
	.st3{enable-background:new    ;}
	.st4{fill:#017CC0;}
</style>
<path id="BG" class="st0" d="M59,26.1L44.5,51.6h-29L1,26.1L15.5,1h29L59,26.1z"/>
<path class="st1" d="M30.6,21.2v14.2l11.3-2.1v-6.9c0-0.3,0.3-0.5,0.5-0.5l1.4,0.2c0.2,0,0.4,0.2,0.4,0.5v8c0,0.2-0.2,0.4-0.4,0.5
	l-12.3,2.7c-0.6,0.1-1.2,0.1-1.8,0l-12.2-2.6c-0.2,0-0.4-0.2-0.4-0.5l-0.2-8.1c0-0.3,0.2-0.5,0.4-0.5l10.4-0.9
	c0.2,0,0.3-0.1,0.4-0.3l1.6-3.8C29.9,20.5,30.6,20.7,30.6,21.2 M16.8,16.5l-3.3,7c-0.2,0.3,0.1,0.7,0.5,0.7L26.2,23
	c0.2,0,0.3-0.1,0.4-0.3l3.9-8.9l-13.4,2.5C16.9,16.3,16.8,16.4,16.8,16.5 M30.5,13.8l4.2,9.1c0.1,0.2,0.2,0.3,0.4,0.3l12.2,1
	c0.4,0,0.6-0.3,0.5-0.7l-3.2-7c-0.1-0.1-0.2-0.2-0.4-0.3L30.5,13.8z"/>
<path class="st2" d="z"/>
<path id="Connector" class="st1" d="M59,26.8v-1h108v1H59z M182.5,9.1c9.5,0,17.3,7.7,17.3,17.3c0,9.5-7.7,17.3-17.3,17.3
	c-9.5,0-17.3-7.7-17.3-17.3C165.3,16.8,173,9.1,182.5,9.1C182.5,9.1,182.5,9.1,182.5,9.1z"/>
<g class="st3">
	<path class="st4" d="M176.4,30.5c-0.7-0.9-1-2.1-1-3.7c0-1.5,0.3-2.8,1-3.7c0.7-0.9,1.7-1.4,3-1.4c1.3,0,2.3,0.5,3,1.4
		c0.7,0.9,1,2.1,1,3.7c0,1.5-0.3,2.8-1,3.7c-0.7,0.9-1.7,1.4-3,1.4C178,31.9,177,31.5,176.4,30.5z M177.5,24.2
		c-0.4,0.7-0.6,1.6-0.6,2.6c0,1.1,0.2,2,0.6,2.6c0.4,0.7,1,1,1.8,1s1.4-0.3,1.8-1s0.6-1.6,0.6-2.7c0-1.1-0.2-2-0.6-2.7
		c-0.4-0.7-1-1-1.8-1S177.9,23.5,177.5,24.2z"/>
	<path class="st4" d="M184.6,22h3.6v9.8h-1.6v-8.3h-2V22z"/>
</g>
</svg>
